<?xml version="1.0" standalone="no"?>
<!DOCTYPE svg PUBLIC "-//W3C//DTD SVG 20010904//EN"
 "http://www.w3.org/TR/2001/REC-SVG-20010904/DTD/svg10.dtd">
<svg version="1.0" xmlns="http://www.w3.org/2000/svg"
 width="512.000000pt" height="512.000000pt" viewBox="0 0 512.000000 512.000000"
 preserveAspectRatio="xMidYMid meet">

<g transform="translate(0.000000,512.000000) scale(0.100000,-0.100000)"
fill="#fefbf3" stroke="none">
<path d="M2365 5109 c-434 -40 -821 -174 -1127 -389 -121 -85 -344 -308 -431
-430 -76 -108 -182 -314 -225 -441 -71 -202 -109 -464 -99 -669 20 -409 225
-838 500 -1046 72 -55 200 -119 221 -111 8 3 23 18 32 32 20 31 103 355 104
404 0 24 -11 49 -39 85 -171 225 -244 479 -220 771 49 608 491 1096 1107 1224
285 59 618 44 875 -40 184 -60 342 -155 470 -283 317 -315 442 -808 337 -1326
-87 -426 -330 -775 -642 -919 -263 -122 -535 -99 -703 60 -129 122 -163 266
-110 469 13 52 58 203 100 334 95 301 120 390 140 495 50 272 -27 473 -214
559 -74 35 -210 42 -297 17 -105 -31 -174 -73 -259 -159 -62 -62 -90 -100
-122 -166 -66 -133 -87 -235 -87 -415 1 -164 20 -278 68 -396 l25 -61 -190
-767 c-105 -421 -197 -797 -205 -836 -21 -98 -30 -496 -15 -667 20 -215 49
-411 65 -426 8 -8 21 -12 30 -9 38 15 284 415 401 652 105 213 119 255 246
719 98 360 104 377 119 355 74 -115 237 -226 415 -282 128 -40 217 -50 387
-44 301 11 555 94 813 264 147 98 346 300 452 461 218 328 329 680 349 1107
23 483 -145 929 -480 1274 -310 319 -697 511 -1181 586 -121 19 -472 27 -610
14z"/>
</g>
</svg>
